#Comment line ignore any data following # character 
#Hierarchical Translation and Rotation (.htr) file 
[Header]	
#Header keywords are followed by a single value 
FileType HTR		#Single word string
DataType HTRS		#Translation followed by rotation and scale data
FileVersion 1		#integer
NumSegments 23		#integer
NumFrames 4		#integer
DataFrameRate 30		#integer, data frame rate in this file
EulerRotationOrder ZYX
CalibrationUnits mm
RotationUnits Degrees
GlobalAxisofGravity Y
BoneLengthAxis Y
ScaleFactor 1.00
[SegmentNames&Hierarchy]
#CHILD	PARENT
MASTER GLOBAL
weapon MASTER
arm_lock_bottom_part1 weapon
arm_lock_bottom_part2 weapon
arm_lock_bottom_part3 weapon
arm_lock_bottom_part4 weapon
arm_lock_top_part1 weapon
arm_lock_top_part2 weapon
arm_lock_top_part3 weapon
front_lower_left_part1 weapon
front_lower_right_part1 weapon
front_top_left_part weapon
front_top_right_part1 weapon
scope_part1 weapon
scope_part2 weapon
front_lower_left_part2 front_lower_left_part1
front_lower_left_part3 front_lower_left_part2
front_lower_right_part2 front_lower_right_part1
front_lower_right_part3 front_lower_right_part2
front_top_left_part2 front_top_left_part
front_top_left_part3 front_top_left_part2
front_top_right_part2 front_top_right_part1
front_top_right_part3 front_top_right_part2
[BasePosition]
#SegmentName Tx, Ty, Tz, Rx, Ry, Rz, BoneLength
MASTER 0.000000 0.000000 0.000000 -90.000000 0.000000 0.000000 10.000000 
weapon 0.000000 0.000000 0.000000 0.000000 0.000000 0.000000 10.000000 
arm_lock_bottom_part1 0.000000 0.000000 0.000000 0.000000 0.000000 0.000000 10.000000 
arm_lock_bottom_part2 0.000000 0.000000 0.000000 0.000000 0.000000 0.000000 10.000000 
arm_lock_bottom_part3 0.000000 0.000000 0.000000 0.000000 0.000000 0.000000 10.000000 
arm_lock_bottom_part4 0.000000 0.000000 0.000000 0.000000 0.000000 0.000000 10.000000 
arm_lock_top_part1 0.000000 0.000000 0.000000 0.000000 0.000000 0.000000 10.000000 
arm_lock_top_part2 0.000000 0.000000 0.000000 0.000000 0.000000 0.000000 10.000000 
arm_lock_top_part3 0.000000 0.000000 0.000000 0.000000 0.000000 0.000000 10.000000 
front_lower_left_part1 0.000000 0.000000 0.000000 0.000000 0.000000 0.000000 10.000000 
front_lower_right_part1 0.000000 0.000000 0.000000 0.000000 0.000000 0.000000 10.000000 
front_top_left_part 0.000000 0.000000 0.000000 0.000000 0.000000 0.000000 10.000000 
front_top_right_part1 0.000000 0.000000 0.000000 0.000000 0.000000 0.000000 10.000000 
scope_part1 0.000000 0.000000 0.000000 0.000000 0.000000 0.000000 10.000000 
scope_part2 0.000000 0.000000 0.000000 0.000000 0.000000 0.000000 10.000000 
front_lower_left_part2 0.000000 0.000000 0.000000 0.000000 0.000000 0.000000 10.000000 
front_lower_left_part3 0.000000 0.000000 0.000000 0.000000 0.000000 0.000000 10.000000 
front_lower_right_part2 0.000000 0.000000 0.000000 0.000000 0.000000 0.000000 10.000000 
front_lower_right_part3 0.000000 0.000000 0.000000 0.000000 0.000000 0.000000 10.000000 
front_top_left_part2 0.000000 0.000000 0.000000 0.000000 0.000000 0.000000 10.000000 
front_top_left_part3 0.000000 0.000000 0.000000 0.000000 0.000000 0.000000 10.000000 
front_top_right_part2 0.000000 0.000000 0.000000 0.000000 0.000000 0.000000 10.000000 
front_top_right_part3 0.000000 0.000000 0.000000 0.000000 0.000000 0.000000 10.000000 
#Beginning of Data. Separated by tabs
#Fr	Tx	Ty	Tz	Rx	Ry	Rz	SF
[MASTER]
43 0.000000 -0.000019 0.000002 0.002458 -0.000000 0.000000 0.000019
44 0.000000 -0.000019 0.000002 0.002458 -0.000000 0.000000 0.000019
45 0.000000 -0.000019 0.000002 0.002458 -0.000000 0.000000 0.000019
46 0.000000 -0.000019 0.000002 0.002458 -0.000000 0.000000 0.000019
[weapon]
43 10.182457 -168.977844 -13.084106 -0.002473 -0.000000 -0.000020 169.789246
44 10.182457 -168.977844 -13.084106 -0.002473 -0.000000 -0.000020 169.789246
45 10.182476 -168.977844 -13.084106 -0.002473 -0.000000 -0.000020 169.789246
46 10.182457 -168.977844 -13.084106 -0.002473 -0.000000 -0.000020 169.789246
[arm_lock_bottom_part1]
43 -48.820019 98.566170 -83.498993 179.999985 0.000004 9.388626 138.096939
44 -48.820000 98.566208 -83.498993 179.999985 0.000004 9.388626 138.096970
45 -48.820000 98.566170 -83.498993 179.999985 0.000004 9.388626 138.096939
46 -48.820000 98.566208 -83.498993 179.999985 0.000004 9.388626 138.096970
[arm_lock_bottom_part2]
43 -49.022766 58.781967 -78.526535 -179.999985 -0.000001 6.576765 109.658417
44 -49.022766 58.782005 -78.526535 -179.999985 -0.000001 6.576765 109.658440
45 -49.022766 58.781967 -78.526535 -179.999985 -0.000001 6.576765 109.658417
46 -49.022766 58.782005 -78.526535 -179.999985 -0.000001 6.576765 109.658440
[arm_lock_bottom_part3]
43 -51.266438 -16.798248 -66.920395 -179.999985 -0.000001 4.326176 85.957939
44 -51.266422 -16.798210 -66.920395 -179.999985 -0.000001 4.326176 85.957924
45 -51.266422 -16.798248 -66.920395 -179.999985 -0.000001 4.326176 85.957932
46 -51.266422 -16.798210 -66.920395 -179.999985 -0.000001 4.326176 85.957924
[arm_lock_bottom_part4]
43 -40.078102 -93.503136 -59.330063 -179.999985 -0.000000 1.322129 117.767334
44 -40.078102 -93.503113 -59.330063 -179.999985 -0.000000 1.322129 117.767326
45 -40.078083 -93.503136 -59.330063 -179.999985 -0.000000 1.322129 117.767326
46 -40.078102 -93.503113 -59.330063 -179.999985 -0.000000 1.322129 117.767326
[arm_lock_top_part1]
43 -47.532558 61.554451 78.379364 0.000000 -0.000000 -9.999999 110.415672
44 -47.532558 61.554489 78.379364 0.000000 -0.000000 -9.999999 110.415680
45 -47.532558 61.554451 78.379364 0.000000 -0.000000 -9.999999 110.415672
46 -47.532558 61.554489 78.379364 0.000000 -0.000000 -9.999999 110.415680
[arm_lock_top_part2]
43 -45.622673 13.709869 63.393555 0.000000 -0.000000 -7.722126 79.297745
44 -45.622673 13.709908 63.393555 0.000000 -0.000000 -7.722126 79.297745
45 -45.622673 13.709869 63.393555 0.000000 -0.000000 -7.722126 79.297745
46 -45.622673 13.709908 63.393555 0.000000 -0.000000 -7.722126 79.297745
[arm_lock_top_part3]
43 -43.788544 -73.747231 72.061615 0.000000 0.000000 -4.533067 112.022171
44 -43.788544 -73.747208 72.061615 0.000000 0.000000 -4.533067 112.022163
45 -43.788525 -73.747253 72.061615 0.000000 0.000000 -4.533067 112.022179
46 -43.788544 -73.747208 72.061615 0.000000 0.000000 -4.533067 112.022163
[front_lower_left_part1]
43 -46.798553 475.070862 -43.538895 0.000000 0.000003 -0.000000 479.351715
44 -46.798553 475.070984 -43.538895 0.000000 0.000003 -0.000000 479.351837
45 -46.798553 475.070953 -43.538895 0.000000 0.000003 -0.000000 479.351807
46 -46.798553 475.070984 -43.538895 0.000000 0.000003 -0.000000 479.351837
[front_lower_right_part1]
43 26.433447 475.070862 -43.538742 0.000000 -0.000000 -0.000000 477.793549
44 26.433468 475.070984 -43.538742 0.000000 -0.000000 -0.000000 477.793671
45 26.433447 475.070953 -43.538895 0.000000 -0.000000 -0.000000 477.793640
46 26.433468 475.070984 -43.538742 0.000000 -0.000000 -0.000000 477.793671
[front_top_left_part]
43 -47.897205 494.788879 7.030945 -0.000000 0.000003 -0.000001 497.151489
44 -47.897224 494.788910 7.030945 -0.000000 0.000003 -0.000001 497.151520
45 -47.897224 494.788879 7.030945 -0.000000 0.000003 -0.000001 497.151489
46 -47.897224 494.788910 7.030945 -0.000000 0.000003 -0.000001 497.151520
[front_top_right_part1]
43 27.532120 494.788727 7.031097 0.000000 -0.000000 -0.000000 495.604004
44 27.532139 494.788910 7.031097 0.000000 -0.000000 -0.000000 495.604218
45 27.532156 494.788879 7.031097 0.000000 -0.000000 -0.000000 495.604187
46 27.532139 494.788910 7.031097 0.000000 -0.000000 -0.000000 495.604218
[scope_part1]
43 -10.754318 87.338974 156.453094 -4.905998 -1.444340 0.124046 179.502975
44 -10.754299 87.338936 156.453094 -4.906033 -1.426691 0.122518 179.502960
45 -10.754318 87.338905 156.453094 -4.905979 -1.406886 0.120739 179.502960
46 -10.754299 87.338936 156.453094 -4.905921 -1.384841 0.118863 179.502960
[scope_part2]
43 -10.754299 82.597305 156.859894 -4.905813 1.342226 -0.115224 177.603470
44 -10.754299 82.597351 156.859894 -4.905771 1.325894 -0.113751 177.603500
45 -10.754280 82.597305 156.859894 -4.905726 1.307474 -0.112189 177.603470
46 -10.754299 82.597351 156.859894 -4.905676 1.286972 -0.110380 177.603500
[front_lower_left_part2]
43 -55.193501 141.618484 32.268291 0.000000 -0.000000 2.867797 155.381348
44 -55.193516 141.618484 32.268444 0.000000 -0.000000 2.934426 155.381378
45 -55.193501 141.618484 32.268444 0.000000 -0.000000 2.997503 155.381378
46 -55.193516 141.618484 32.268444 0.000000 -0.000000 3.057030 155.381378
[front_lower_left_part3]
43 -10.943775 108.509369 -11.124725 34.028366 -14.360235 -16.050074 109.625763
44 -10.943775 108.509445 -11.124877 34.035664 -14.341081 -16.079330 109.625854
45 -10.943775 108.509369 -11.124725 34.041451 -14.325840 -16.102722 109.625763
46 -10.943755 108.509445 -11.124877 34.045666 -14.314710 -16.119644 109.625854
[front_lower_right_part2]
43 55.193707 141.618408 32.268291 0.000000 0.000000 -1.364417 155.381348
44 55.193707 141.618347 32.268291 0.000000 0.000000 -1.396104 155.381271
45 55.193707 141.618347 32.268291 0.000000 0.000000 -1.426092 155.381271
46 55.193707 141.618347 32.268291 0.000000 0.000000 -1.454378 155.381271
[front_lower_right_part3]
43 10.943947 108.509445 -11.124725 33.700191 15.195171 14.763334 109.625862
44 10.943870 108.509369 -11.124877 33.700760 15.193857 14.765471 109.625786
45 10.943909 108.509445 -11.124725 33.700317 15.194957 14.763779 109.625854
46 10.943909 108.509369 -11.124725 33.698910 15.198236 14.758536 109.625778
[front_top_left_part2]
43 -38.504845 137.496490 54.615932 0.000000 -0.000003 0.000001 152.875137
44 -38.476067 137.496628 54.614410 0.000000 -0.000003 0.000001 152.867477
45 -38.458424 137.496704 54.613342 0.000000 -0.000003 0.000001 152.862717
46 -38.452393 137.496704 54.613033 0.000000 -0.000003 0.000001 152.861099
[front_top_left_part3]
43 -28.216438 149.656982 49.959717 -25.944338 -3.134891 -64.949898 160.278976
44 -28.216457 149.657059 49.959717 -25.943287 -3.144209 -64.969124 160.279053
45 -28.216438 149.656982 49.959564 -25.942080 -3.154718 -64.990913 160.278931
46 -28.216438 149.656906 49.959717 -25.940735 -3.166465 -65.015045 160.278915
[front_top_right_part2]
43 38.225632 137.478851 55.077969 0.000000 0.000000 -0.000020 152.954956
44 38.194885 137.478714 55.079651 0.000000 0.000000 -0.000020 152.947754
45 38.175999 137.478638 55.080719 0.000000 0.000000 -0.000020 152.943344
46 38.169594 137.478638 55.081024 0.000000 0.000000 -0.000020 152.941864
[front_top_right_part3]
43 28.216515 149.657059 49.959717 -25.906885 3.451402 65.602173 160.279068
44 28.216553 149.657135 49.959717 -25.906231 3.456879 65.613457 160.279144
45 28.216515 149.657059 49.959564 -25.905457 3.463126 65.626251 160.279022
46 28.216553 149.657059 49.959717 -25.904577 3.469936 65.640450 160.279083
